# xmcd
#
# Track frame offsets:
#	150
#	17318
#	38163
#	61512
#	88245
#	109714
#	126827
#	147432
#	170506
#	192336
#	209884
#	232586
#	255555
#	280750
#
# Disc length: 4046 seconds
#
# Revision: 9
# Processed by: cddbd v1.5.2PL0 Copyright (c) Steve Scherf et al.
# Submitted via: EasyCDDAExtractor 15.3.0.1
#
DISCID=bd0fcc0e
DTITLE=Marc Anthony - Grandes Exitos - Sigo Siendo Yo
DYEAR=2006
DGENRE=Latin
TTITLE0=Dimelo
TTITLE1=No Me Ames (Featuring Jennifer Lopez)
TTITLE2=Da La Vuelta
TTITLE3=Muy Dentro De Mi (You Sang To Me) (Spanish Version)
TTITLE4=Celos
TTITLE5=Tragedia
TTITLE6=Barco A La Deriva
TTITLE7=Ahora Quien
TTITLE8=Valio La Pena (Salsa Version)
TTITLE9=Se Esfuma Tu Amor
TTITLE10=Tu Amor Me Hace Bien (Salsa Version)
TTITLE11=Lamento Borincano (Salsa Version)
TTITLE12=Lo Que No Di
TTITLE13=Que Precio Tiene El Cielo
EXTD=YEAR: 2006
EXTT0=
EXTT1=
EXTT2=
EXTT3=
EXTT4=
EXTT5=
EXTT6=
EXTT7=
EXTT8=
EXTT9=
EXTT10=
EXTT11=
EXTT12=
EXTT13=
PLAYORDER=
